<?xml version="1.0" standalone="no"?>
<!DOCTYPE svg PUBLIC "-//W3C//DTD SVG 20010904//EN"
 "http://www.w3.org/TR/2001/REC-SVG-20010904/DTD/svg10.dtd">
<svg version="1.0" xmlns="http://www.w3.org/2000/svg"
 width="260.000000pt" height="260.000000pt" viewBox="0 0 260.000000 260.000000"
 preserveAspectRatio="xMidYMid meet">
<metadata>
Created by potrace 1.14, written by Peter Selinger 2001-2017
</metadata>
<g transform="translate(0.000000,260.000000) scale(0.100000,-0.100000)"
fill="#000000" stroke="none">
<path d="M952 2055 c-139 -44 -239 -132 -307 -267 -44 -89 -59 -163 -52 -265
5 -69 4 -83 -9 -83 -32 0 -121 -55 -172 -106 -32 -33 -66 -81 -85 -122 -29
-61 -32 -75 -32 -162 1 -110 18 -156 86 -233 70 -80 173 -127 289 -132 45 -2
82 -10 121 -29 94 -44 197 -55 292 -31 21 6 33 2 50 -13 12 -12 45 -31 72 -43
57 -26 178 -30 275 -10 30 6 69 13 85 15 17 3 44 7 60 10 17 2 50 7 75 11 25
3 56 8 70 10 14 3 41 7 60 10 19 3 46 7 60 10 14 2 48 7 75 10 110 13 152 21
190 37 112 46 189 224 138 321 -9 18 -18 58 -19 90 -2 32 -10 79 -19 106 -8
26 -17 56 -19 67 -20 103 -65 179 -140 235 -45 34 -51 44 -71 113 -35 121 -92
192 -195 243 -47 24 -67 28 -140 28 -54 -1 -101 -7 -130 -18 l-45 -16 -62 68
c-106 117 -199 162 -343 167 -68 2 -100 -2 -158 -21z"/>
</g>
</svg>
